<svg width="47" height="48" viewBox="0 0 47 48" fill="none" xmlns="http://www.w3.org/2000/svg">
<path d="M2 7.87826V2H7.49518M2 40.6306V46H7.49518M45 7.87826V2H39.9709M45 40.6306V46H39.9709" stroke="#00A295" stroke-width="2.1" stroke-linecap="round"/>
<path d="M14 28C16.0446 31.2716 16.375 36.1562 22.1251 37.7096C27.875 39.2632 30.5 34.3436 33 28.6473" stroke="#00A295" stroke-width="2.1" stroke-linecap="round"/>
<path d="M18.1699 11.2749C13.9746 11.864 13.7414 18.6389 14.1493 21.9527C6.59775 9.58115 14.3824 6.12007 19.2187 5.93597C26.9101 -1.28076 33.611 6.48828 36 11.2749C35.7203 20.7007 33.9023 22.3209 33.0283 21.9527C31.6299 15.1778 30.7833 16.0614 28.8329 14.9568C26.8826 13.8523 24.494 14.9637 22.0156 13.8523C20.3777 13.1178 18.1699 11.2749 18.1699 11.2749Z" stroke="#00A295" stroke-width="2.1" stroke-linecap="round"/>
<path d="M15 38C14.3856 39.3993 14.1011 40.5833 13.427 41.5833C12.7528 42.5834 11 44 11 44" stroke="#00A295" stroke-width="2.1" stroke-linecap="round"/>
<path d="M33 38C33.6144 39.3994 33.8989 40.5833 34.573 41.5834C35.2472 42.5834 37 44 37 44" stroke="#00A295" stroke-width="2.1" stroke-linecap="round"/>
<path d="M20.5 24C21.3284 24 22 23.3284 22 22.5C22 21.6716 21.3284 21 20.5 21C19.6716 21 19 21.6716 19 22.5C19 23.3284 19.6716 24 20.5 24Z" fill="#00A295"/>
<path d="M13.5 26C14.3284 26 15 25.3284 15 24.5C15 23.6716 14.3284 23 13.5 23C12.6716 23 12 23.6716 12 24.5C12 25.3284 12.6716 26 13.5 26Z" fill="#00A295"/>
<path d="M33 26C33.5523 26 34 25.3284 34 24.5C34 23.6716 33.5523 23 33 23C32.4477 23 32 23.6716 32 24.5C32 25.3284 32.4477 26 33 26Z" fill="#00A295"/>
<path d="M26.5 24C27.3284 24 28 23.3284 28 22.5C28 21.6716 27.3284 21 26.5 21C25.6716 21 25 21.6716 25 22.5C25 23.3284 25.6716 24 26.5 24Z" fill="#00A295"/>
<path d="M26.5 29C27.3284 29 28 28.3284 28 27.5C28 26.6716 27.3284 26 26.5 26C25.6716 26 25 26.6716 25 27.5C25 28.3284 25.6716 29 26.5 29Z" fill="#00A295"/>
<path d="M20.5 29C21.3284 29 22 28.3284 22 27.5C22 26.6716 21.3284 26 20.5 26C19.6716 26 19 26.6716 19 27.5C19 28.3284 19.6716 29 20.5 29Z" fill="#00A295"/>
</svg>
