<svg width="127" height="129" viewBox="0 0 127 129" fill="none" xmlns="http://www.w3.org/2000/svg">
<path d="M2.31775 18.7277V2H17.9553M2.31775 111.931V127.21H17.9553M124.682 18.7277V2H110.371M124.682 111.931V127.21H110.371" stroke="#00A295" stroke-width="3" stroke-linecap="round"/>
<path d="M36.4659 75.9873C42.2843 85.2972 43.2245 99.1972 59.5874 103.618C75.9498 108.039 83.4199 94.0392 90.534 77.8294" stroke="#00A295" stroke-width="3" stroke-linecap="round"/>
<path d="M48.3321 28.3934C36.3937 30.0699 35.7302 49.3491 36.891 58.7792C15.4015 23.5736 37.5541 13.7245 51.3168 13.2006C73.2042 -7.33599 92.2727 14.7723 99.0711 28.3934C98.2751 55.2165 93.1017 59.827 90.6147 58.7792C86.6351 39.4999 84.226 42.0145 78.6759 38.8711C73.1258 35.7281 66.3286 38.8907 59.276 35.7281C54.615 33.6379 48.3321 28.3934 48.3321 28.3934Z" stroke="#00A295" stroke-width="3" stroke-linecap="round"/>
<path d="M39.3117 104.445C37.5634 108.427 36.7538 111.797 34.8354 114.642C32.917 117.488 27.929 121.519 27.929 121.519" stroke="#00A295" stroke-width="3" stroke-linecap="round"/>
<path d="M90.5341 104.445C92.2824 108.428 93.0922 111.797 95.0105 114.643C96.9289 117.488 101.917 121.519 101.917 121.519" stroke="#00A295" stroke-width="3" stroke-linecap="round"/>
<path d="M54.963 64.6054C57.3204 64.6054 59.2315 62.6943 59.2315 60.3369C59.2315 57.9794 57.3204 56.0684 54.963 56.0684C52.6055 56.0684 50.6945 57.9794 50.6945 60.3369C50.6945 62.6943 52.6055 64.6054 54.963 64.6054Z" stroke="#00A295" stroke-width="3" stroke-linecap="round"/>
<path d="M35.0431 70.2968C37.4006 70.2968 39.3117 68.3857 39.3117 66.0283C39.3117 63.6709 37.4006 61.7598 35.0431 61.7598C32.6857 61.7598 30.7746 63.6709 30.7746 66.0283C30.7746 68.3857 32.6857 70.2968 35.0431 70.2968Z" fill="#00A295"/>
<path d="M90.534 70.2968C92.1056 70.2968 93.3797 68.3857 93.3797 66.0283C93.3797 63.6709 92.1056 61.7598 90.534 61.7598C88.9624 61.7598 87.6883 63.6709 87.6883 66.0283C87.6883 68.3857 88.9624 70.2968 90.534 70.2968Z" fill="#00A295"/>
<path d="M72.0371 64.6054C74.3945 64.6054 76.3056 62.6943 76.3056 60.3369C76.3056 57.9794 74.3945 56.0684 72.0371 56.0684C69.6796 56.0684 67.7686 57.9794 67.7686 60.3369C67.7686 62.6943 69.6796 64.6054 72.0371 64.6054Z" stroke="#00A295" stroke-width="3" stroke-linecap="round"/>
<path d="M72.0371 78.833C74.3945 78.833 76.3056 76.9219 76.3056 74.5644C76.3056 72.207 74.3945 70.2959 72.0371 70.2959C69.6796 70.2959 67.7686 72.207 67.7686 74.5644C67.7686 76.9219 69.6796 78.833 72.0371 78.833Z" stroke="#00A295" stroke-width="3" stroke-linecap="round"/>
<path d="M54.963 78.833C57.3204 78.833 59.2315 76.9219 59.2315 74.5644C59.2315 72.207 57.3204 70.2959 54.963 70.2959C52.6055 70.2959 50.6945 72.207 50.6945 74.5644C50.6945 76.9219 52.6055 78.833 54.963 78.833Z" stroke="#00A295" stroke-width="3" stroke-linecap="round"/>
</svg>
