<svg width="49" height="71" viewBox="0 0 49 71" fill="none" xmlns="http://www.w3.org/2000/svg">
<path d="M1.5 46.5637V32.136C1.5 25.2207 4.69736 18.694 10.1614 14.4555V14.4555C20.1405 6.71477 34.5444 8.76114 41.9726 18.975L42.4751 19.6659" stroke="#00A295" stroke-width="2.1" stroke-linecap="round"/>
<path d="M42.4751 19.666V19.666C45.4215 23.9219 47 28.9751 47 34.1513V49.8318" stroke="#00A295" stroke-width="2.1" stroke-linecap="round"/>
<path d="M15.0745 16.9003L16.0543 16.4237C25.574 11.7925 37.0233 16.2168 40.9549 26.0461V26.0461C41.7935 28.1424 42.2353 30.3763 42.2579 32.6341L42.3592 42.7686C42.4356 50.4016 40.8451 57.9593 37.6989 64.9141V64.9141" stroke="#00A295" stroke-width="2.1" stroke-linecap="round"/>
<path d="M1.75135 51.3396V51.3396C4.4123 51.0595 6.36049 48.7059 6.20846 46.0345C5.13876 27.239 7.21548 21.0056 15.0746 16.9004" stroke="#00A295" stroke-width="2.1" stroke-linecap="round" stroke-linejoin="round"/>
<path d="M17.3152 20.6108V20.6108C24.5855 16.4679 33.8308 19.9677 36.535 27.8866L37.0019 29.2537C37.5046 30.7258 37.7676 32.2692 37.7809 33.8248L37.8467 41.5313C37.9146 49.4866 36.0084 57.3346 32.2987 64.3723L30.1575 68.4346" stroke="#00A295" stroke-width="2.1" stroke-linecap="round"/>
<path d="M3.25966 55.3623V55.3623C7.65512 54.6534 10.7368 50.6623 10.4698 46.218C9.30384 26.8087 11.6149 24.0981 17.3153 20.6104" stroke="#00A295" stroke-width="2.1" stroke-linecap="round"/>
<path d="M13.5663 66.6745C25.884 58.8817 25.1298 47.8209 24.6271 33.4922" stroke="#00A295" stroke-width="2.1" stroke-linecap="round"/>
<path d="M19.3695 24.487V24.487C25.0546 20.6856 32.7185 24.4995 33.1142 31.327L33.2964 34.4715L33.336 40.7273C33.3943 49.9467 30.802 58.9886 25.8677 66.7765L24.0217 69.6901" stroke="#00A295" stroke-width="2.1" stroke-linecap="round"/>
<path d="M5.27072 59.8866V59.8866C11.205 57.0984 14.7615 50.9565 14.5722 44.4026C14.151 29.8211 15.7662 27.4618 19.3698 24.4873" stroke="#00A295" stroke-width="2.1" stroke-linecap="round"/>
<path d="M21.8738 28.9233V28.9233C25.0989 26.7885 29.4032 29.1012 29.4032 32.9689V38.0166L29.403 42.0546C29.4025 52.1969 25.4321 61.936 18.3414 69.1878V69.1878" stroke="#00A295" stroke-width="2.1" stroke-linecap="round"/>
<path d="M9.29245 63.6572C13.6796 61.7269 15.7392 59.6742 17.3526 57.0715C18.8152 54.712 19.3335 51.8933 19.315 49.1173C19.1979 31.5332 19.5238 30.6007 21.874 28.9229" stroke="#00A295" stroke-width="2.1" stroke-linecap="round"/>
</svg>
