<svg width="53" height="54" viewBox="0 0 53 54" fill="none" xmlns="http://www.w3.org/2000/svg">
<rect y="0.238281" width="53" height="53" rx="26.5" fill="#01A295" fill-opacity="0.1"/>
<path d="M13 24.582C13 23.4775 13.8954 22.582 15 22.582H16.0918C17.1964 22.582 18.0918 23.4775 18.0918 24.582V29.2348C18.0918 30.3393 17.1964 31.2348 16.0918 31.2348H15C13.8954 31.2348 13 30.3393 13 29.2348V24.582Z" stroke="#01A295" stroke-width="2"/>
<path d="M23.1655 20.8164C23.1655 19.7118 24.061 18.8164 25.1655 18.8164H26.2573C27.3619 18.8164 28.2573 19.7118 28.2573 20.8164V29.2376C28.2573 30.3422 27.3619 31.2376 26.2573 31.2376H25.1655C24.061 31.2376 23.1655 30.3422 23.1655 29.2376V20.8164Z" stroke="#01A295" stroke-width="2"/>
<path d="M33.3491 15.9687C33.3491 14.8642 34.2446 13.9688 35.3491 13.9688H36.4409C37.5455 13.9688 38.4409 14.8642 38.4409 15.9687V29.2356C38.4409 30.3402 37.5455 31.2356 36.4409 31.2356H35.3491C34.2446 31.2356 33.3491 30.3402 33.3491 29.2356V15.9687Z" stroke="#01A295" stroke-width="2"/>
<path d="M36.5219 37.5039H13.7461" stroke="#01A295" stroke-width="2" stroke-linecap="round"/>
<path d="M35.1648 34.2278L38.4409 37.5039L35.1648 40.78" stroke="#01A295" stroke-width="2" stroke-linecap="round"/>
</svg>
