<svg width="53" height="53" viewBox="0 0 53 53" fill="none" xmlns="http://www.w3.org/2000/svg">
<rect width="53" height="53" rx="26.5" fill="#01A295" fill-opacity="0.1"/>
<path d="M24.8743 12.4475C25.84 11.7327 27.16 11.7327 28.1257 12.4475C29.1384 13.197 30.4084 13.5118 31.654 13.3217C32.8336 13.1417 34.0061 13.762 34.53 14.8442C35.0783 15.9765 36.0577 16.8553 37.2501 17.2706C38.3811 17.6646 39.1336 18.7636 39.0982 19.9708C39.0613 21.2289 39.5211 22.463 40.3834 23.3869C41.2094 24.272 41.3686 25.594 40.7767 26.6529C40.1605 27.755 40.005 29.0626 40.3404 30.2776C40.6625 31.4446 40.1933 32.6918 39.1851 33.3494C38.1268 34.0397 37.3858 35.129 37.1228 36.3592C36.871 37.5373 35.8791 38.423 34.6903 38.5326C33.4342 38.6485 32.2746 39.2635 31.4716 40.2328C30.7052 41.1578 29.4215 41.4768 28.3175 41.0171C27.1542 40.5326 25.8458 40.5326 24.6825 41.0171C23.5785 41.4768 22.2947 41.1578 21.5284 40.2328C20.7254 39.2635 19.5658 38.6485 18.3097 38.5326C17.1209 38.423 16.129 37.5373 15.8772 36.3592C15.6142 35.129 14.8732 34.0397 13.8149 33.3494C12.8067 32.6918 12.3374 31.4446 12.6596 30.2776C12.995 29.0626 12.8395 27.755 12.2233 26.6529C11.6314 25.594 11.7906 24.272 12.6166 23.3869C13.4789 22.463 13.9387 21.2289 13.9018 19.9708C13.8664 18.7636 14.6189 17.6646 15.7499 17.2706C16.9423 16.8553 17.9217 15.9765 18.47 14.8442C18.9939 13.762 20.1664 13.1417 21.3459 13.3217C22.5916 13.5118 23.8616 13.197 24.8743 12.4475Z" stroke="#01A295" stroke-width="2"/>
<path d="M20.0264 23.4695C20.0264 22.6385 20.2669 21.9879 20.748 21.5177C21.24 21.0476 21.8687 20.8125 22.6341 20.8125C23.3995 20.8125 24.0228 21.0476 24.5038 21.5177C24.9959 21.9879 25.2419 22.6385 25.2419 23.4695C25.2419 24.3114 24.9959 24.9674 24.5038 25.4376C24.0228 25.9078 23.3995 26.1428 22.6341 26.1428C21.8687 26.1428 21.24 25.9078 20.748 25.4376C20.2669 24.9674 20.0264 24.3114 20.0264 23.4695ZM30.5558 21.0093L24.1102 32.49H21.8797L28.3089 21.0093H30.5558ZM22.6177 22.1902C22.0164 22.1902 21.7157 22.6166 21.7157 23.4695C21.7157 24.3333 22.0164 24.7651 22.6177 24.7651C22.9129 24.7651 23.1426 24.6613 23.3066 24.4535C23.4706 24.2348 23.5526 23.9068 23.5526 23.4695C23.5526 22.6166 23.241 22.1902 22.6177 22.1902ZM27.2264 30.0135C27.2264 29.1716 27.467 28.521 27.9481 28.0618C28.4401 27.5916 29.0688 27.3565 29.8342 27.3565C30.5996 27.3565 31.2173 27.5916 31.6875 28.0618C32.1686 28.521 32.4091 29.1716 32.4091 30.0135C32.4091 30.8554 32.1686 31.5114 31.6875 31.9816C31.2173 32.4518 30.5996 32.6868 29.8342 32.6868C29.0579 32.6868 28.4292 32.4518 27.9481 31.9816C27.467 31.5114 27.2264 30.8554 27.2264 30.0135ZM29.8178 28.7342C29.1945 28.7342 28.8829 29.1606 28.8829 30.0135C28.8829 30.8773 29.1945 31.3092 29.8178 31.3092C30.4301 31.3092 30.7362 30.8773 30.7362 30.0135C30.7362 29.1606 30.4301 28.7342 29.8178 28.7342Z" fill="#01A295"/>
</svg>
