<svg width="304" height="398" viewBox="0 0 304 398" fill="none" xmlns="http://www.w3.org/2000/svg">
<path d="M302.5 199C302.5 253.653 285.578 303.076 258.288 338.804C231 374.53 193.407 396.5 152 396.5C110.593 396.5 73.0005 374.53 45.7118 338.804C18.4221 303.076 1.5 253.653 1.5 199C1.5 144.347 18.4221 94.9242 45.7118 59.1963C73.0005 23.4696 110.593 1.5 152 1.5C193.407 1.5 231 23.4696 258.288 59.1963C285.578 94.9242 302.5 144.347 302.5 199Z" stroke="white" stroke-width="3"/>
<path opacity="0.3" d="M232.5 83L184.5 35L107.5 112H53.5V209.5L155 108L107.5 83L176.5 244.5L184.5 347.5L268 209.5L209 136.5L277 108L262 57.5L71.5 293.5L91.5 347.5L127.5 387.5H176.5L148 271.5L53.5 341.5L15.5 221.5M15.5 221.5L35.5 112L78.5 63.5L127.5 40.5L196 221.5L277 167.5L244 318.5M15.5 221.5L6 167.5L78.5 162.5L104 225.5M104 225.5L22.5 254.5L96.5 271.5L104 225.5Z" stroke="white"/>
</svg>
