<svg width="104" height="154" viewBox="0 0 104 154" fill="none" xmlns="http://www.w3.org/2000/svg">
<path d="M2 101.658V69.9483C2 54.7499 9.02717 40.4054 21.0361 31.0901V31.0901C42.9681 14.0774 74.6251 18.5749 90.9509 41.0229L92.0553 42.5415" stroke="#01A295" stroke-width="2.1" stroke-linecap="round"/>
<path d="M92.0552 42.541L94.2615 45.7278C99.3004 53.0063 102 61.6483 102 70.5008V108.839" stroke="#01A295" stroke-width="2.1" stroke-linecap="round"/>
<path d="M31.8344 36.4628L33.9877 35.4152C54.9101 25.2367 80.0733 34.9606 88.7144 56.5633V56.5633C90.5574 61.1708 91.5284 66.0804 91.578 71.0425L91.9261 105.848C92.0113 114.369 90.2359 122.805 86.7238 130.569L81.5582 141.988" stroke="#01A295" stroke-width="2.1" stroke-linecap="round"/>
<path d="M2.55237 112.155V112.155C8.40061 111.539 12.6824 106.366 12.3482 100.495C9.99724 59.1861 14.5614 45.4864 31.8342 36.4639" stroke="#01A295" stroke-width="2.1" stroke-linecap="round" stroke-linejoin="round"/>
<path d="M36.7586 44.6199V44.6199C52.7375 35.5146 73.0567 43.2067 79.0001 60.6109L80.0261 63.6153C81.1311 66.8509 81.7092 70.2429 81.7383 73.6618L82.0069 105.116C82.0748 113.071 80.1686 120.919 76.4589 127.957L64.9834 149.727" stroke="#01A295" stroke-width="2.1" stroke-linecap="round"/>
<path d="M5.86737 120.999L6.92386 120.829C15.9883 119.367 22.3494 111.143 21.7797 101.979C19.0669 58.3434 24.126 52.3505 36.7589 44.6211" stroke="#01A295" stroke-width="2.1" stroke-linecap="round"/>
<path d="M28.5196 145.861C55.5914 128.734 53.934 104.424 52.829 72.9326" stroke="#01A295" stroke-width="2.1" stroke-linecap="round"/>
<path d="M41.2737 53.1375V53.1375C53.7684 44.7827 70.6121 53.1649 71.4817 68.1704L71.8822 75.0815L72.0763 105.744C72.1346 114.964 69.5423 124.006 64.608 131.794L51.4982 152.485" stroke="#01A295" stroke-width="2.1" stroke-linecap="round"/>
<path d="M10.2874 130.939L21.096 125.861C27.6153 122.798 31.5778 116.031 31.2154 108.837C29.0584 66.0156 32.4596 60.4144 41.2743 53.1387" stroke="#01A295" stroke-width="2.1" stroke-linecap="round"/>
<path d="M46.7778 62.8871V62.8871C53.866 58.1953 63.3259 63.2781 63.3259 71.7785V82.8723L63.3247 106.911C63.3241 119.481 58.4034 131.551 49.6157 140.538L39.0143 151.381" stroke="#01A295" stroke-width="2.1" stroke-linecap="round"/>
<path d="M19.1265 139.227C31.1174 133.951 35.1971 128.259 39.3176 120.344C40.5994 117.881 41.2136 115.124 41.1915 112.348C40.8443 68.7943 41.3955 66.7305 46.7783 62.8877" stroke="#01A295" stroke-width="2.1" stroke-linecap="round"/>
</svg>
